<?xml version="1.0" encoding="UTF-8"?>
<svg id="Complete_Logo" data-name="Complete Logo" xmlns="http://www.w3.org/2000/svg" viewBox="0 0 2500 1000">
  <defs>
    <style>
      .cls-1 {
        fill: none;
        stroke: #ffe619;
        stroke-miterlimit: 10;
        stroke-width: 4px;
      }

      .cls-2 {
        fill: #fff;
      }

      .cls-3 {
        fill: #ffe619;
      }
    </style>
  </defs>
  <circle cx="598.98" cy="500" r="441.55"/>
  <g>
    <g>
      <g>
        <circle class="cls-3" cx="380.65" cy="188.56" r="17.66"/>
        <circle class="cls-3" cx="817.33" cy="188.56" r="17.66"/>
        <circle class="cls-3" cx="952.22" cy="603.85" r="17.66"/>
        <circle class="cls-3" cx="599" cy="860.47" r="17.66"/>
        <circle class="cls-3" cx="245.73" cy="603.82" r="17.66"/>
      </g>
      <g>
        <path class="cls-1" d="M380.66,188.56h436.68s-436.68,0-436.68,0Z"/>
        <line class="cls-1" x1="245.73" y1="603.82" x2="380.66" y2="188.56"/>
        <line class="cls-1" x1="380.66" y1="188.56" x2="245.73" y2="603.82"/>
        <line class="cls-1" x1="952.22" y1="603.85" x2="599" y2="860.47"/>
        <line class="cls-1" x1="245.73" y1="603.82" x2="599" y2="860.47"/>
        <line class="cls-1" x1="952.22" y1="603.85" x2="817.33" y2="188.56"/>
      </g>
    </g>
    <g>
      <line class="cls-1" x1="525.19" y1="376.78" x2="878.46" y2="376.77"/>
      <line class="cls-1" x1="672.78" y1="376.78" x2="785.89" y2="724.69"/>
      <line class="cls-1" x1="718.36" y1="517.12" x2="422.75" y2="732.43"/>
      <line class="cls-1" x1="313.19" y1="396.21" x2="599" y2="603.85"/>
      <line class="cls-1" x1="586.04" y1="188.56" x2="479.59" y2="517.11"/>
    </g>
    <g>
      <circle class="cls-3" cx="878.47" cy="376.78" r="17.66"/>
      <circle class="cls-3" cx="313.19" cy="396.21" r="17.66"/>
      <circle class="cls-3" cx="785.89" cy="725.03" r="17.66"/>
      <circle class="cls-3" cx="422.75" cy="732.43" r="17.66"/>
      <circle class="cls-3" cx="422.75" cy="732.43" r="17.66"/>
      <circle class="cls-3" cx="586.04" cy="188.56" r="17.66"/>
    </g>
    <line class="cls-1" x1="598.98" y1="472.65" x2="695.57" y2="446.88"/>
    <line class="cls-1" x1="658.67" y1="560.19" x2="598.98" y2="472.65"/>
    <line class="cls-1" x1="538.88" y1="560.19" x2="598.98" y2="472.65"/>
    <line class="cls-1" x1="502.39" y1="446.74" x2="598.98" y2="472.65"/>
    <line class="cls-1" x1="598.98" y1="472.65" x2="599" y2="376.76"/>
    <g>
      <path class="cls-1" d="M525.19,376.76h147.59s-147.59,0-147.59,0Z"/>
      <line class="cls-1" x1="479.59" y1="517.11" x2="525.19" y2="376.76"/>
      <line class="cls-1" x1="525.19" y1="376.76" x2="479.59" y2="517.11"/>
      <line class="cls-1" x1="718.36" y1="517.12" x2="598.98" y2="603.85"/>
      <line class="cls-1" x1="479.59" y1="517.11" x2="598.98" y2="603.85"/>
      <line class="cls-1" x1="718.36" y1="517.12" x2="672.78" y2="376.76"/>
    </g>
    <g>
      <circle class="cls-3" cx="525.19" cy="376.76" r="25"/>
      <circle class="cls-3" cx="672.78" cy="376.76" r="25"/>
      <circle class="cls-3" cx="718.36" cy="517.12" r="25"/>
      <circle class="cls-3" cx="598.98" cy="603.85" r="25"/>
      <circle class="cls-3" cx="479.59" cy="517.11" r="25"/>
    </g>
    <circle class="cls-3" cx="598.98" cy="472.65" r="40"/>
  </g>
  <g id="Text_Group_" data-name="Text &amp;lt;Group&amp;gt;">
    <g id="_Group_DistroAV" data-name="&amp;lt;Group&amp;gt; DistroAV">
      <path class="cls-2" d="M1128.91,624.65v-229.02h117.15l46.61,48.17v132.69l-46.61,48.17h-117.15ZM1146.63,608.81h91.98l36.67-38.22v-121.19l-36.67-37.91h-91.98v197.33Z"/>
      <path class="cls-2" d="M1341.77,444.42v-34.18h17.09v34.18h-17.09ZM1341.77,624.65v-162.52h17.09v162.52h-17.09Z"/>
      <path class="cls-2" d="M1412,624.65v-14.92h87.32l16.47-16.47v-28.59l-16.16-16.47h-68.99l-25.17-24.86v-35.12l25.79-26.1h87.94v14.92h-80.17l-16.47,16.47v23.93l15.85,16.16h69.3l25.17,25.17v39.78l-25.79,26.1h-95.09Z"/>
      <path class="cls-2" d="M1608.71,624.65l-26.1-26.1v-122.13h-21.13v-14.29h21.44l3.42-43.51h13.36v43.51h41.02v14.29h-41.02v116.53l16.78,16.78h30.45v14.92h-38.22Z"/>
      <path class="cls-2" d="M1680.49,624.65v-162.52h17.09v29.52l27.66-29.52h46.3v17.09h-44.13l-29.83,31.08v114.36h-17.09Z"/>
      <path class="cls-2" d="M1826.23,624.65l-30.45-30.76v-100.99l30.45-30.76h73.03l30.45,30.76v100.99l-30.45,30.76h-73.03ZM1833.07,610.36h59.35l20.2-20.51v-92.91l-20.2-20.51h-59.35l-20.2,20.51v92.91l20.2,20.51Z"/>
      <path class="cls-2" d="M1958.3,624.65l80.48-229.02h29.52l80.49,229.02h-18.33l-22.06-63.39h-109.7l-22.06,63.39h-18.33ZM2003.98,545.1h99.13l-46.3-132.69h-6.53l-46.3,132.69Z"/>
      <path class="cls-2" d="M2227.41,624.65l-80.48-229.02h18.02l73.65,212.24h6.84l73.65-212.24h18.33l-80.8,229.02h-29.21Z"/>
    </g>
  </g>
</svg>